<svg width="132" height="263" viewBox="0 0 132 263" fill="none" xmlns="http://www.w3.org/2000/svg">
<g clip-path="url(#clip0_0_7)">
<path d="M125.883 163.636C138.853 163.636 149.368 153.121 149.368 140.151C149.368 127.18 138.853 116.665 125.883 116.665C112.912 116.665 102.398 127.18 102.398 140.151C102.398 153.121 112.912 163.636 125.883 163.636Z" fill="#33373E"/>
<path fill-rule="evenodd" clip-rule="evenodd" d="M125.888 92.4009C157.42 92.4009 186.712 96.9255 208.798 104.529C235.409 113.691 251.771 127.577 251.771 140.151C251.771 153.254 234.431 168.007 205.854 177.475C184.25 184.633 155.819 188.37 125.888 188.37C95.1991 188.37 66.1388 184.862 44.2907 177.396C16.6489 167.948 0 153.005 0 140.151C0 127.679 15.6218 113.9 41.8587 104.752C64.0275 97.0233 94.0432 92.4009 125.883 92.4009H125.888Z" stroke="#33373E" stroke-width="11.2354"/>
<path fill-rule="evenodd" clip-rule="evenodd" d="M84.3229 116.413C100.076 89.0979 118.628 65.983 136.249 50.6486C157.479 32.173 177.683 24.9374 188.575 31.2185C199.926 37.7645 204.043 60.1561 197.969 89.6405C193.381 111.932 182.411 138.426 167.458 164.356C152.126 190.94 134.571 214.362 117.19 229.554C95.1969 248.78 73.934 255.737 62.7993 249.316C51.9946 243.09 47.8628 222.669 53.046 195.371C57.4255 172.306 68.416 143.995 84.3178 116.412L84.3229 116.413Z" stroke="#33373E" stroke-width="11.2354"/>
<path fill-rule="evenodd" clip-rule="evenodd" d="M84.3525 164.425C68.5551 137.141 57.7996 109.518 53.3101 86.5943C47.9059 58.974 51.7269 37.8562 62.6092 31.5569C73.9495 24.9918 95.4048 32.6075 117.915 52.5952C134.935 67.7067 152.412 90.4382 167.408 116.343C182.784 142.902 194.308 169.809 198.791 192.454C204.463 221.111 199.872 243.006 188.748 249.446C177.954 255.694 158.202 249.079 137.14 230.954C119.345 215.641 100.306 191.98 84.3525 164.424V164.425Z" stroke="#33373E" stroke-width="11.2354"/>
</g>
<defs>
<clipPath id="clip0_0_7">
<rect width="263" height="263" fill="white"/>
</clipPath>
</defs>
</svg>
